<svg width="138" height="36" viewBox="0 0 138 36" fill="none" xmlns="http://www.w3.org/2000/svg">
<g clip-path="url(#clip0_816_31)">
<path fill-rule="evenodd" clip-rule="evenodd" d="M21.0578 7.85208C19.8328 7.85208 18.6198 8.09115 17.488 8.55564C16.3563 9.0201 15.328 9.70094 14.4618 10.5591C13.5956 11.4174 12.9085 12.4363 12.4397 13.5577C12.1111 14.3436 11.8943 15.1692 11.794 16.0105C11.7152 16.6718 11.3506 17.2824 10.7509 17.5796L8.97709 18.4583C8.37739 18.7555 7.98393 19.3661 8.06276 20.0274C8.16306 20.8688 8.37987 21.6943 8.70843 22.4802C9.17726 23.6016 9.86435 24.6205 10.7305 25.4788C11.5967 26.337 12.6251 27.0178 13.7568 27.4823C14.8886 27.9468 16.1016 28.1859 17.3265 28.1859C18.5515 28.1859 19.7645 27.9468 20.8963 27.4823C22.028 27.0178 23.0564 26.337 23.9226 25.4788C24.7887 24.6205 25.4758 23.6016 25.9446 22.4802C26.2732 21.6943 26.49 20.8688 26.5903 20.0274C26.6691 19.3661 27.0337 18.7555 27.6335 18.4583L29.4072 17.5796C30.0069 17.2824 30.4004 16.6718 30.3216 16.0105C30.2213 15.1692 30.0044 14.3436 29.6759 13.5577C29.2071 12.4363 28.52 11.4174 27.6538 10.5591C26.7876 9.70094 25.7593 9.0201 24.6275 8.55564C23.4957 8.09115 22.2828 7.85208 21.0578 7.85208ZM25.3668 15.3262C25.4609 15.5511 25.5366 15.7825 25.5935 16.0181C25.7501 16.6655 25.3428 17.2824 24.7431 17.5796L22.9694 18.4583C22.3696 18.7555 22.0188 19.3724 21.8623 20.0199C21.8053 20.2555 21.7296 20.4868 21.6356 20.7118C21.4012 21.2724 21.0576 21.7818 20.6245 22.211C20.1914 22.6401 19.6773 22.9805 19.1114 23.2128C18.5455 23.445 17.939 23.5645 17.3265 23.5645C16.7141 23.5645 16.1076 23.445 15.5416 23.2128C14.9758 22.9805 14.4616 22.6401 14.0285 22.211C13.5954 21.7818 13.2518 21.2724 13.0175 20.7118C12.9234 20.4868 12.8478 20.2555 12.7908 20.0199C12.6343 19.3724 13.0415 18.7555 13.6412 18.4583L15.4149 17.5796C16.0147 17.2824 16.3655 16.6655 16.522 16.0181C16.579 15.7825 16.6548 15.5511 16.7487 15.3262C16.9832 14.7655 17.3267 14.2561 17.7598 13.827C18.1929 13.3978 18.707 13.0575 19.2729 12.8252C19.8388 12.593 20.4453 12.4734 21.0578 12.4734C21.6703 12.4734 22.2768 12.593 22.8427 12.8252C23.4085 13.0575 23.9227 13.3978 24.3558 13.827C24.7889 14.2561 25.1325 14.7655 25.3668 15.3262Z" fill="#E22935"/>
<path fill-rule="evenodd" clip-rule="evenodd" d="M21.0579 0.458008C18.853 0.458008 16.6695 0.888325 14.6324 1.7244C12.5952 2.56047 10.7443 3.78593 9.18505 5.33079C7.62592 6.87565 6.38913 8.70967 5.54532 10.7281C4.8416 12.4114 4.42271 14.1956 4.303 16.0088C4.25914 16.6733 3.88817 17.2825 3.28843 17.5796L1.5147 18.4584C0.914955 18.7555 0.527873 19.3648 0.571737 20.0292C0.691442 21.8424 1.11034 23.6265 1.81404 25.3099C2.65786 27.3283 3.89465 29.1623 5.45382 30.7072C7.01297 32.2521 8.86399 33.4775 10.9011 34.3135C12.9382 35.1496 15.1216 35.58 17.3266 35.58C19.5317 35.58 21.715 35.1496 23.7521 34.3135C25.7893 33.4775 27.6403 32.2521 29.1995 30.7072C30.7586 29.1623 31.9954 27.3283 32.8392 25.3099C33.543 23.6265 33.9618 21.8424 34.0815 20.0292C34.1254 19.3648 34.4963 18.7555 35.0961 18.4584L36.8698 17.5796C37.4696 17.2825 37.8567 16.6733 37.8128 16.0088C37.6931 14.1956 37.2742 12.4114 36.5705 10.7281C35.7266 8.70967 34.4899 6.87565 32.9307 5.33079C31.3716 3.78593 29.5205 2.56047 27.4835 1.7244C25.4463 0.888325 23.2629 0.458008 21.0579 0.458008ZM29.4037 20.0285C29.4644 19.3653 29.8323 18.7555 30.432 18.4584L32.2057 17.5796C32.8055 17.2825 33.1957 16.6727 33.1349 16.0096C33.0246 14.8037 32.7306 13.6191 32.2615 12.4967C31.652 11.0388 30.7588 9.7143 29.6327 8.59855C28.5066 7.48281 27.1698 6.59777 25.6985 5.99393C24.2273 5.39011 22.6504 5.07931 21.0579 5.07931C19.4654 5.07931 17.8885 5.39011 16.4172 5.99393C14.9459 6.59777 13.6091 7.48281 12.4831 8.59855C11.3571 9.7143 10.4638 11.0388 9.85438 12.4967C9.38512 13.6191 9.09119 14.8037 8.98082 16.0096C8.92011 16.6727 8.55226 17.2825 7.95251 17.5796L6.17879 18.4584C5.57904 18.7555 5.18888 19.3653 5.24957 20.0285C5.35995 21.2343 5.65385 22.4189 6.12309 23.5414C6.73252 24.9991 7.62575 26.3237 8.75182 27.4394C9.87788 28.5551 11.2147 29.4402 12.686 30.044C14.1572 30.6479 15.7341 30.9586 17.3266 30.9586C18.9191 30.9586 20.4961 30.6479 21.9673 30.044C23.4386 29.4402 24.7754 28.5551 25.9014 27.4394C27.0275 26.3237 27.9207 24.9991 28.5301 23.5414C28.9994 22.4189 29.2933 21.2343 29.4037 20.0285Z" fill="#E22935"/>
<path d="M37.8437 16.7181H33.1779C33.1759 16.9544 33.0363 17.1681 32.8219 17.2743L29.8156 18.7636C29.6013 18.8698 29.4645 19.0835 29.4478 19.3198H34.1134C34.1282 19.0834 34.2654 18.8698 34.4797 18.7636L37.486 17.2743C37.7003 17.1681 37.8396 16.9545 37.8437 16.7181Z" fill="#FF6670"/>
<path d="M0.541016 19.3198H5.20675C5.2088 19.0835 5.34845 18.8698 5.56279 18.7636L8.56904 17.2743C8.78337 17.1681 8.92014 16.9544 8.93702 16.7181H4.27124C4.25647 16.9545 4.11928 17.1681 3.90495 17.2743L0.898701 18.7636C0.684373 18.8698 0.545121 19.0834 0.541016 19.3198Z" fill="#FF6670"/>
<path d="M11.7371 16.7181C11.718 16.9544 11.5817 17.1681 11.3674 17.2743L8.36108 18.7636C8.14673 18.8698 8.00665 19.0836 8.00684 19.3198H12.6787C12.6687 19.084 12.8107 18.8699 13.0251 18.7636L16.0314 17.2743C16.2459 17.1681 16.3804 16.9539 16.4089 16.7181H11.7371Z" fill="#FF6670"/>
<path d="M25.7063 16.7181C25.7162 16.9539 25.5743 17.1681 25.3598 17.2743L22.3536 18.7636C22.1391 18.8699 22.0046 19.084 21.9761 19.3198H26.648C26.667 19.0836 26.8033 18.8698 27.0177 18.7636L30.0239 17.2743C30.2382 17.1681 30.3783 16.9544 30.3781 16.7181H25.7063Z" fill="#FF6670"/>
</g>
<path d="M52.32 25.14C51.2933 25.14 50.3733 24.9733 49.56 24.64C48.7467 24.3067 48.0933 23.8133 47.6 23.16C47.12 22.5067 46.8667 21.72 46.84 20.8H50.48C50.5333 21.32 50.7133 21.72 51.02 22C51.3267 22.2667 51.7267 22.4 52.22 22.4C52.7267 22.4 53.1267 22.2867 53.42 22.06C53.7133 21.82 53.86 21.4933 53.86 21.08C53.86 20.7333 53.74 20.4467 53.5 20.22C53.2733 19.9933 52.9867 19.8067 52.64 19.66C52.3067 19.5133 51.8267 19.3467 51.2 19.16C50.2933 18.88 49.5533 18.6 48.98 18.32C48.4067 18.04 47.9133 17.6267 47.5 17.08C47.0867 16.5333 46.88 15.82 46.88 14.94C46.88 13.6333 47.3533 12.6133 48.3 11.88C49.2467 11.1333 50.48 10.76 52 10.76C53.5467 10.76 54.7933 11.1333 55.74 11.88C56.6867 12.6133 57.1933 13.64 57.26 14.96H53.56C53.5333 14.5067 53.3667 14.1533 53.06 13.9C52.7533 13.6333 52.36 13.5 51.88 13.5C51.4667 13.5 51.1333 13.6133 50.88 13.84C50.6267 14.0533 50.5 14.3667 50.5 14.78C50.5 15.2333 50.7133 15.5867 51.14 15.84C51.5667 16.0933 52.2333 16.3667 53.14 16.66C54.0467 16.9667 54.78 17.26 55.34 17.54C55.9133 17.82 56.4067 18.2267 56.82 18.76C57.2333 19.2933 57.44 19.98 57.44 20.82C57.44 21.62 57.2333 22.3467 56.82 23C56.42 23.6533 55.8333 24.1733 55.06 24.56C54.2867 24.9467 53.3733 25.14 52.32 25.14ZM62.9647 15.42C63.298 14.9 63.758 14.48 64.3447 14.16C64.9314 13.84 65.618 13.68 66.4047 13.68C67.3247 13.68 68.158 13.9133 68.9047 14.38C69.6514 14.8467 70.238 15.5133 70.6647 16.38C71.1047 17.2467 71.3247 18.2533 71.3247 19.4C71.3247 20.5467 71.1047 21.56 70.6647 22.44C70.238 23.3067 69.6514 23.98 68.9047 24.46C68.158 24.9267 67.3247 25.16 66.4047 25.16C65.6314 25.16 64.9447 25 64.3447 24.68C63.758 24.36 63.298 23.9467 62.9647 23.44V30.32H59.5447V13.84H62.9647V15.42ZM67.8447 19.4C67.8447 18.5467 67.6047 17.88 67.1247 17.4C66.658 16.9067 66.078 16.66 65.3847 16.66C64.7047 16.66 64.1247 16.9067 63.6447 17.4C63.178 17.8933 62.9447 18.5667 62.9447 19.42C62.9447 20.2733 63.178 20.9467 63.6447 21.44C64.1247 21.9333 64.7047 22.18 65.3847 22.18C66.0647 22.18 66.6447 21.9333 67.1247 21.44C67.6047 20.9333 67.8447 20.2533 67.8447 19.4ZM83.6389 19.24C83.6389 19.56 83.6189 19.8933 83.5789 20.24H75.8389C75.8922 20.9333 76.1122 21.4667 76.4989 21.84C76.8989 22.2 77.3856 22.38 77.9589 22.38C78.8122 22.38 79.4056 22.02 79.7389 21.3H83.3789C83.1922 22.0333 82.8522 22.6933 82.3589 23.28C81.8789 23.8667 81.2722 24.3267 80.5389 24.66C79.8056 24.9933 78.9856 25.16 78.0789 25.16C76.9856 25.16 76.0122 24.9267 75.1589 24.46C74.3056 23.9933 73.6389 23.3267 73.1589 22.46C72.6789 21.5933 72.4389 20.58 72.4389 19.42C72.4389 18.26 72.6722 17.2467 73.1389 16.38C73.6189 15.5133 74.2856 14.8467 75.1389 14.38C75.9922 13.9133 76.9722 13.68 78.0789 13.68C79.1589 13.68 80.1189 13.9067 80.9589 14.36C81.7989 14.8133 82.4522 15.46 82.9189 16.3C83.3989 17.14 83.6389 18.12 83.6389 19.24ZM80.1389 18.34C80.1389 17.7533 79.9389 17.2867 79.5389 16.94C79.1389 16.5933 78.6389 16.42 78.0389 16.42C77.4656 16.42 76.9789 16.5867 76.5789 16.92C76.1922 17.2533 75.9522 17.7267 75.8589 18.34H80.1389ZM84.7631 19.4C84.7631 18.2533 84.9765 17.2467 85.4031 16.38C85.8431 15.5133 86.4365 14.8467 87.1831 14.38C87.9298 13.9133 88.7631 13.68 89.6831 13.68C90.4698 13.68 91.1565 13.84 91.7431 14.16C92.3431 14.48 92.8031 14.9 93.1231 15.42V13.84H96.5431V25H93.1231V23.42C92.7898 23.94 92.3231 24.36 91.7231 24.68C91.1365 25 90.4498 25.16 89.6631 25.16C88.7565 25.16 87.9298 24.9267 87.1831 24.46C86.4365 23.98 85.8431 23.3067 85.4031 22.44C84.9765 21.56 84.7631 20.5467 84.7631 19.4ZM93.1231 19.42C93.1231 18.5667 92.8831 17.8933 92.4031 17.4C91.9365 16.9067 91.3631 16.66 90.6831 16.66C90.0031 16.66 89.4231 16.9067 88.9431 17.4C88.4765 17.88 88.2431 18.5467 88.2431 19.4C88.2431 20.2533 88.4765 20.9333 88.9431 21.44C89.4231 21.9333 90.0031 22.18 90.6831 22.18C91.3631 22.18 91.9365 21.9333 92.4031 21.44C92.8831 20.9467 93.1231 20.2733 93.1231 19.42ZM105.837 25L102.437 20.32V25H99.0173V10.2H102.437V18.38L105.817 13.84H110.037L105.397 19.44L110.077 25H105.837ZM122.401 13.84V25H118.981V23.48C118.634 23.9733 118.161 24.3733 117.561 24.68C116.974 24.9733 116.321 25.12 115.601 25.12C114.747 25.12 113.994 24.9333 113.341 24.56C112.687 24.1733 112.181 23.62 111.821 22.9C111.461 22.18 111.281 21.3333 111.281 20.36V13.84H114.681V19.9C114.681 20.6467 114.874 21.2267 115.261 21.64C115.647 22.0533 116.167 22.26 116.821 22.26C117.487 22.26 118.014 22.0533 118.401 21.64C118.787 21.2267 118.981 20.6467 118.981 19.9V13.84H122.401ZM128.277 15.42C128.611 14.9 129.071 14.48 129.657 14.16C130.244 13.84 130.931 13.68 131.717 13.68C132.637 13.68 133.471 13.9133 134.217 14.38C134.964 14.8467 135.551 15.5133 135.977 16.38C136.417 17.2467 136.637 18.2533 136.637 19.4C136.637 20.5467 136.417 21.56 135.977 22.44C135.551 23.3067 134.964 23.98 134.217 24.46C133.471 24.9267 132.637 25.16 131.717 25.16C130.944 25.16 130.257 25 129.657 24.68C129.071 24.36 128.611 23.9467 128.277 23.44V30.32H124.857V13.84H128.277V15.42ZM133.157 19.4C133.157 18.5467 132.917 17.88 132.437 17.4C131.971 16.9067 131.391 16.66 130.697 16.66C130.017 16.66 129.437 16.9067 128.957 17.4C128.491 17.8933 128.257 18.5667 128.257 19.42C128.257 20.2733 128.491 20.9467 128.957 21.44C129.437 21.9333 130.017 22.18 130.697 22.18C131.377 22.18 131.957 21.9333 132.437 21.44C132.917 20.9333 133.157 20.2533 133.157 19.4Z" fill="#1A1A1A"/>
<defs>
<clipPath id="clip0_816_31">
<rect width="38" height="36" fill="white"/>
</clipPath>
</defs>
</svg>
